# xmcd
#
# Track frame offsets:
#	150
#	12270
#	37625
#	50207
#	74107
#	89005
#	110880
#	126342
#	145352
#	162115
#	185915
#	199075
#	218527
#	243510
#	251902
#	266825
#	280725
#	298922
#
# Disc length: 4193 seconds
#
# Revision: 5
# Processed by: cddbd v1.5PL3 Copyright (c) Steve Scherf et al.
# Submitted via: EasyCDDAExtractor 6.5.0.1
#
DISCID=2c105f12
DTITLE=B. B. King - His Definitive Greatest Hits [CD2)
DYEAR=1900
DGENRE=Blues
TTITLE0=Help The Poor
TTITLE1=So Excited
TTITLE2=Broken Heart
TTITLE3=Ghetto Woman
TTITLE4=Ain't Nobody Home
TTITLE5=Darlin' You Know I Love You
TTITLE6=In The Midnight Hour
TTITLE7=Into The Night
TTITLE8=My Lucille
TTITLE9=The Blues Come Over Me
TTITLE10=Since I Met You Baby
TTITLE11=I'm Moving On
TTITLE12=Let The Good Times Roll (Live)
TTITLE13=Woke Up This Mornin' (Live)
TTITLE14=Three O'Clock Blues (Live)
TTITLE15=Please Love Me (Live)
TTITLE16=Caldonia (Live)
TTITLE17=Rock Me Baby (Live)
EXTD=
EXTT0=
EXTT1=
EXTT2=
EXTT3=
EXTT4=
EXTT5=
EXTT6=
EXTT7=
EXTT8=
EXTT9=
EXTT10=
EXTT11=
EXTT12=
EXTT13=
EXTT14=
EXTT15=
EXTT16=
EXTT17=
PLAYORDER=
